<svg xmlns="http://www.w3.org/2000/svg" xmlns:xlink="http://www.w3.org/1999/xlink" width="27.709" height="30.003" viewBox="0 0 27.709 30.003"><defs><linearGradient id="icon_header_footer_builder" x1="0.5" x2="0.5" y2="1" gradientUnits="objectBoundingBox"><stop offset="0" stop-color="#6fbfff"></stop><stop offset="1" stop-color="#3c8bff"></stop></linearGradient></defs><path id="icon" d="M44.628,55.348,31.469,61.9a1.246,1.246,0,0,1-.982,0l-13.16-6.551c-.268-.134-.268-.354,0-.488l3.152-1.566a1.249,1.249,0,0,1,.984,0l9.025,4.487a1.24,1.24,0,0,0,.982,0l9.025-4.487a1.247,1.247,0,0,1,.983,0l3.152,1.569c.271.131.271.351,0,.485Zm0-9.143-3.152-1.569a1.247,1.247,0,0,0-.983,0l-9.025,4.492a1.251,1.251,0,0,1-.982,0l-9.025-4.492a1.249,1.249,0,0,0-.984,0L17.326,46.2c-.268.134-.268.354,0,.49l13.16,6.55a1.246,1.246,0,0,0,.982,0l13.16-6.55C44.9,46.559,44.9,46.339,44.628,46.2Zm-27.3-7.616,13.16,6.047a1.345,1.345,0,0,0,.982,0l13.16-6.047c.268-.125.268-.327,0-.451l-13.16-6.046a1.331,1.331,0,0,0-.982,0l-13.16,6.046C17.055,38.261,17.055,38.464,17.326,38.589Z" transform="translate(-17.122 -31.997)" fill="url(#icon_header_footer_builder)"></path></svg>