<svg xmlns="http://www.w3.org/2000/svg" width="16" height="15.754" viewBox="0 0 16 15.754">
  <g id="Group_1061" data-name="Group 1061" transform="translate(-56.99 -147.062)">
    <path id="Path_292" data-name="Path 292" d="M58.153,213.2c.273.247.545.484.8.73q2.18,2.068,4.356,4.14a2.378,2.378,0,0,0,3.353,0c.39-.368.785-.73,1.181-1.092a.506.506,0,0,1,.714-.011.444.444,0,0,1-.034.677c-.429.4-.855.808-1.3,1.2a3.346,3.346,0,0,1-4.575-.081q-2.258-2.144-4.513-4.292a1.363,1.363,0,0,1-.116-.144l-.041.023c0,.042-.01.084-.01.126q0,3.392,0,6.784a2.162,2.162,0,0,0,2.157,2.055q4.855,0,9.711,0A2.163,2.163,0,0,0,72,221.257c0-1.5,0-2.991,0-4.487a1.011,1.011,0,0,1,.021-.226.493.493,0,0,1,.961.054,1.178,1.178,0,0,1,0,.137q0,2.228,0,4.457a3.153,3.153,0,0,1-3.216,3.06H60.207a3.153,3.153,0,0,1-3.216-3.06q0-3.574,0-7.149a3.153,3.153,0,0,1,3.2-3.056q2.368,0,4.735,0c.331,0,.546.187.544.47a.456.456,0,0,1-.364.443,1.181,1.181,0,0,1-.253.023q-2.3,0-4.591,0A2.264,2.264,0,0,0,58.153,213.2Z" transform="translate(0 -61.437)"/>
    <path id="Path_293" data-name="Path 293" d="M368.07,154.168v-.223q0-3.1,0-6.209a.658.658,0,0,1,.178-.5.589.589,0,0,1,.991.26,1.306,1.306,0,0,1,.032.327q0,3.036,0,6.073v.276c.3-.3.559-.557.82-.822.355-.361.7-.727,1.061-1.086a.6.6,0,1,1,.846.838q-.993,1.016-1.984,2.033a1.814,1.814,0,0,1-2.655.029q-1.028-1.036-2.04-2.087a.584.584,0,0,1-.007-.879.6.6,0,0,1,.881.072q.9.929,1.807,1.852A.418.418,0,0,0,368.07,154.168Z" transform="translate(-299.598)"/>
  </g>
</svg>
