<svg class="svg-icon" style="width: 1em; height: 1em;vertical-align: middle;fill: currentColor;overflow: hidden;" viewBox="0 0 1024 1024" version="1.1" xmlns="http://www.w3.org/2000/svg"><path d="M169.472 80.164h684.857c37.15 0 70.996 15.237 95.501 39.747l0.094 0.094c24.51 24.524 39.746 58.337 39.746 95.518v609.644c0 37.166-15.235 70.977-39.746 95.502l-0.094 0.11c-24.505 24.509-58.351 39.73-95.5 39.73H169.471c-37.166 0-70.978-15.221-95.503-39.73l-0.092-0.11c-24.51-24.525-39.747-58.336-39.747-95.502V215.522c0-37.259 15.222-71.102 39.747-95.612 24.507-24.524 58.353-39.746 95.595-39.746z m477.16 499.29H753.2a17.86 17.86 0 0 0 12.673-5.254c7.016-7 7.016-18.374 0-25.374L540.311 323.265h206.553c14.865 0 26.92-12.053 26.92-26.92 0-14.85-12.055-26.905-26.92-26.905h-469.93c-14.865 0-26.903 12.054-26.903 26.905 0 14.867 12.038 26.92 26.904 26.92h206.538l-225.56 225.56a17.85 17.85 0 0 0-5.27 12.687c0 9.906 8.038 17.942 17.959 17.942h106.551V786.05c0 9.923 8.034 17.958 17.943 17.958h233.612c9.891 0 17.926-8.035 17.926-17.958V579.454h-0.001z m-35.881 188.672V561.512c0-9.906 8.035-17.942 17.956-17.942H709.9L511.908 345.579 313.902 543.57h81.193c9.904 0 17.942 8.035 17.942 17.942v206.613h197.714z m243.578-634.121H169.472c-22.376 0-42.762 9.177-57.55 23.951-14.773 14.79-23.951 35.174-23.951 57.566v609.644c0 22.422 9.147 42.82 23.905 57.596 14.792 14.757 35.173 23.923 57.597 23.923h684.856c22.407 0 42.808-9.166 57.58-23.923 14.771-14.774 23.922-35.174 23.922-57.596V215.522c0-22.44-9.15-42.821-23.921-57.612-14.773-14.756-35.174-23.905-57.58-23.905z" fill="#015ADE" /></svg>